<?xml version="1.0" encoding="UTF-8"?>
<svg id="Layer_1" data-name="Layer 1" xmlns="http://www.w3.org/2000/svg" viewBox="0 0 3181.45 3181.45">
  <defs>
    <style>
      .cls-1 {
        fill: #0dbf5d;
      }

      .cls-2 {
        fill: #fff;
      }
    </style>
  </defs>
  <rect class="cls-2" width="3181.45" height="3181.45"/>
  <g>
    <path class="cls-1" d="M1590.72,2697.81c-610.45,0-1107.08-496.64-1107.08-1107.09S980.27,483.64,1590.72,483.64s1107.09,496.63,1107.09,1107.08-496.64,1107.09-1107.09,1107.09ZM1590.72,634.8c-527.1,0-955.92,428.83-955.92,955.92s428.83,955.93,955.92,955.93,955.93-428.83,955.93-955.93-428.83-955.92-955.93-955.92h0Z"/>
    <g>
      <path class="cls-1" d="M1354.5,2074.85c0-82.57,116.44-520.79,116.44-586.43,0-33.87-6.35-52.93-42.34-52.93-9.16,0-20.95,3.93-33.17,9.74-23.49,11.16-50.49-6.37-49.81-32.37h0c.28-10.47,5.32-20.13,13.48-26.69,50.99-41.01,125.64-71.35,209.22-71.35,135.49,0,199.01,86.8,199.01,196.9,0,82.55-116.44,520.79-116.44,586.41,0,33.87,8.46,52.93,42.34,52.93,9.17,0,20.95-3.93,33.17-9.73,23.49-11.16,50.49,6.38,49.81,32.38h0c-.28,10.47-5.32,20.13-13.48,26.69-50.97,41.01-125.47,71.34-207.11,71.34-137.61,0-201.12-86.8-201.12-196.88h0Z"/>
      <circle class="cls-1" cx="1678.41" cy="1067.14" r="157.41"/>
    </g>
  </g>
</svg>